# xmcd
#
# Track frame offsets:
#	150
#	16661
#	32635
#	52855
#	66433
#	85474
#	101643
#	117198
#	134449
#	151761
#	166503
#	182849
#	199258
#	213320
#	230916
#	246369
#	262350
#
# Disc length: 3760 seconds
#
# Revision: 1
# Processed by: cddbd v1.5.2PL0 Copyright (c) Steve Scherf et al.
# Submitted via: audiograbber 1.83.01
#
DISCID=ee0eae11
DTITLE=CB50512 - Chartbuster CB50512 Alabama vol 1
DYEAR=1900
DGENRE=Karaoke
TTITLE0=Alabama - If You're Gonna Play In Texas
TTITLE1=Alabama - Forty Hour Week
TTITLE2=Alabama - You've Got The Touch
TTITLE3=Alabama - High Cotton
TTITLE4=Alabama - Fallin' Again
TTITLE5=Alabama - If I Had You
TTITLE6=Alabama - Song Of The South
TTITLE7=Alabama - Jukebox On My Mind
TTITLE8=Alabama - Pass It On Down
TTITLE9=Alabama - Southern Star
TTITLE10=Alabama - Down Home
TTITLE11=Alabama - Forever's As Far As I'll Go
TTITLE12=Alabama - Here We Are
TTITLE13=Alabama - Then Again
TTITLE14=Alabama - Born Country
TTITLE15=Alabama - Hometown Honeymoon
TTITLE16=Alabama - Once Upon A Lifetime
EXTD=
EXTT0=
EXTT1=
EXTT2=
EXTT3=
EXTT4=
EXTT5=
EXTT6=
EXTT7=
EXTT8=
EXTT9=
EXTT10=
EXTT11=
EXTT12=
EXTT13=
EXTT14=
EXTT15=
EXTT16=
PLAYORDER=
